<svg xmlns="http://www.w3.org/2000/svg" width="30" height="30" fill="none"><path fill="#000" d="M9.69 24.006q-1.19 0-1.706-.528-.504-.54-.504-1.708V8.235q0-1.191.516-1.707Q8.524 6 9.69 6h7.85c2.218 0 4.051 1.964 4.051 4.37 0 1.802-.9 3.27-2.702 4.105 2.326.425 3.63 2.784 3.63 4.492 0 2.063-1.055 5.039-4.482 5.039zm6.55-7.996h-5.159v5.257h5.16c1.042 0 2.502-1.02 2.502-2.665s-1.46-2.592-2.502-2.592m-5.159-7.271v4.655h4.761c.719 0 2.196-.673 2.196-2.392 0-1.72-1.594-2.263-2.196-2.263z" style="fill:#000;fill-opacity:1"/></svg>