<svg xmlns="http://www.w3.org/2000/svg" width="30" height="30" fill="none"><path fill="currentColor" fill-rule="evenodd" d="M11 4H9.759c-.805 0-1.47 0-2.01.044-.563.046-1.08.145-1.565.392a4 4 0 0 0-1.748 1.748c-.247.485-.346 1.002-.392 1.564C4 8.29 4 8.954 4 9.758V11a1 1 0 0 0 2 0V9.8c0-.857 0-1.439.038-1.889.035-.438.1-.663.18-.819a2 2 0 0 1 .874-.874c.156-.08.38-.145.819-.18C8.361 6 8.943 6 9.8 6H11a1 1 0 0 0 0-2m15 15a1 1 0 0 0-2 0v1.2c0 .857 0 1.439-.038 1.889-.035.438-.1.663-.18.819a2 2 0 0 1-.874.874c-.156.08-.38.145-.819.18-.45.037-1.032.038-1.889.038H19a1 1 0 0 0 0 2h1.241c.805 0 1.47 0 2.01-.044.563-.046 1.08-.145 1.565-.392a4 4 0 0 0 1.748-1.748c.247-.485.346-1.002.392-1.564.044-.541.044-1.206.044-2.01zM5 18a1 1 0 0 1 1 1v1.2c0 .857 0 1.439.038 1.889.035.438.1.663.18.819a2 2 0 0 0 .874.874c.156.08.38.145.819.18C8.361 24 8.943 24 9.8 24H11a1 1 0 0 1 0 2H9.759c-.805 0-1.47 0-2.01-.044-.563-.046-1.08-.145-1.565-.392a4 4 0 0 1-1.748-1.748c-.247-.485-.346-1.002-.392-1.564C4 21.71 4 21.046 4 20.242V19a1 1 0 0 1 1-1M20.2 6c.857 0 1.439 0 1.889.038.438.035.663.1.819.18a2 2 0 0 1 .874.874c.08.156.145.38.18.819C24 8.361 24 8.943 24 9.8V11a1 1 0 0 0 2 0V9.759c0-.805 0-1.47-.044-2.01-.046-.563-.145-1.08-.392-1.565a4 4 0 0 0-1.748-1.748c-.485-.247-1.002-.346-1.564-.392C21.71 4 21.046 4 20.242 4H19a1 1 0 0 0 0 2z" clip-rule="evenodd"/></svg>