<svg xmlns="http://www.w3.org/2000/svg" width="30" height="30" fill="none"><path fill="#000" d="M6.99 17.5q-1.025 0-1.763-.727a2.43 2.43 0 0 1-.737-1.78q0-1.027.737-1.754A2.4 2.4 0 0 1 6.99 12.5q1.024 0 1.762.74.738.726.738 1.754 0 .69-.35 1.265a2.6 2.6 0 0 1-.9.903 2.4 2.4 0 0 1-1.25.338M15 17.5q-1.024 0-1.762-.727a2.43 2.43 0 0 1-.738-1.78q0-1.027.738-1.754A2.4 2.4 0 0 1 15 12.5q1.024 0 1.762.74.738.726.738 1.754 0 .69-.35 1.265a2.6 2.6 0 0 1-.9.903A2.4 2.4 0 0 1 15 17.5M23.01 17.5q-1.024 0-1.762-.727a2.43 2.43 0 0 1-.738-1.78q0-1.027.738-1.754a2.4 2.4 0 0 1 1.762-.739q1.025 0 1.763.74.737.726.737 1.754 0 .69-.35 1.265a2.6 2.6 0 0 1-.9.903 2.4 2.4 0 0 1-1.25.338" style="fill:#000;fill-opacity:1"/></svg>